<svg width="1024" height="1024" viewBox="0 0 1024 1024" fill="none" xmlns="http://www.w3.org/2000/svg">
<path d="M530.219 121.43C538.99 114.753 549.173 112.313 559.089 113.286C557.284 113.377 555.48 113.581 553.688 113.903C545.116 115.443 537.22 119.57 531.062 125.728C524.903 131.887 520.776 139.783 519.236 148.355C517.697 156.928 518.818 165.767 522.448 173.684L598.59 336.79L522.448 499.895C518.818 507.812 517.697 516.651 519.236 525.224C520.776 533.796 524.903 541.692 531.062 547.851C537.22 554.009 545.116 558.136 553.688 559.676C562.261 561.215 571.1 560.094 579.017 556.464L742.142 480.342L815.728 514.688C838.532 559.68 853.333 601.922 853.333 640C853.333 771.584 763.178 852.48 687.104 892.331C668.757 901.973 651.776 879.787 661.333 861.44C678.698 827.947 694.059 786.347 694.059 746.667C694.059 715.114 678.57 690.389 646.698 660.224C638.549 652.501 625.75 652.63 618.667 661.333C605.526 677.589 497.32 744.551 484.179 761.191C482.44 763.443 480.181 765.239 477.595 766.425C475.009 767.611 472.174 768.151 469.333 768C466.492 767.849 463.731 767.011 461.285 765.558C458.84 764.104 456.784 762.078 455.294 759.655C413.225 694.802 469.419 516.437 467.157 454.57C466.474 435.883 444.629 426.752 432.128 440.576C377.344 501.205 307.2 599.466 307.2 682.709C307.2 760.149 350.635 842.496 388.182 896.47C399.189 912.299 387.114 933.76 368.683 928.043C282.368 901.206 170.667 821.547 170.667 640C170.667 442.795 386.432 230.998 530.219 121.43Z" fill="#2A6695"/>
</svg>
